#!OML:ASF F:\VICON\USERDATA\INSTALL\rory3\rory3.ASF
:FULLY-SPECIFIED
:DEGREES
102
root 1.23590262992956 17.911118319396046 49.94405375166664 -3.346529505532011 -0.40766391397438273 -6.35492199840993
lfemur -17.864645376988346 -1.096855413984723 -14.787685047746077
ltibia 39.74229181618669
lfoot -8.77794979702655 1.6387103401000216
ltoes -10.35114559237314
rfemur -1.2771503250304566 4.0751280993316135 30.49608767175319
rtibia 33.92346496162544
rfoot -2.8333149719973187 -9.205058396956302
rtoes 4.242522116152189
lowerback 8.862720766456246 0.5887079503827806 5.1997559837571785
upperback -0.10983170825949787 1.9860367748502554 1.7299058046518008
thorax -5.200874912638942 0.9454335087441383 -1.295263655051531
lowerneck -16.048712167933726 -3.36274423306164 -1.4615920536388343
upperneck 21.555535978642514 -4.484482845240648 0.37555416727090063
head 9.559704789993601 -2.147865347182577 -0.334501528888335
lclavicle 4.0958561082269847e-16 -8.153942051499172e-16
lhumerus -32.73435390211656 4.78654850590487 80.73044143106634
lradius 23.974284540469103
lwrist 9.0103831334154
lhand -28.650725381649934 19.42620726449476
lfingers nan
lthumb -2.0245142961383045 49.46578936306816
rclavicle 4.3242829462226265e-16 -7.966058145819251e-16
rhumerus -26.577181212232034 -17.20490483626728 -76.8759343733148
rradius 34.08245848405818
rwrist 1.8406532430604394
rhand -18.090430116910518 20.88012953308172
rfingers nan
rthumb 8.64647676042696 -7.745332819555944
103
root 1.2420342428330904 17.926408880718906 49.45215426329533 -3.2941491339664837 0.062407620551523824 -6.156110545392969
lfemur -17.89700025826395 -1.7686166163903734 -15.757780701315099
ltibia 37.18645986060634
lfoot -10.537393891191527 0.9715923588737905
ltoes -9.494268027975396
rfemur -1.770498920473317 3.458515028458681 29.94167793890118
rtibia 37.322195828149894
rfoot -1.458471558704277 -10.211315228748054
rtoes 6.285220459685285
lowerback 8.846291713835 0.6366202395730653 5.158506816842216
upperback -0.12628481796117713 1.9824908606332334 1.6272953656157956
thorax -5.096216706947297 0.9372390925779686 -1.4718380844739842
lowerneck -16.025358038961624 -3.382006558924548 -1.538419797206998
upperneck 21.55922604156577 -4.526479274526386 0.5523716243146604
head 9.5530965644303 -2.159770336513193 -0.26260458514209206
lclavicle 4.154689858811657e-16 -8.118034235215568e-16
lhumerus -32.49662932623292 4.363362247125473 80.75387365983579
lradius 24.270087030683456
lwrist 8.94183186221363
lhand -28.594989239873694 19.42558221632581
lfingers nan
lthumb -1.9937991699543598 49.415479456616154
rclavicle 4.336042558940053e-16 -7.9624861394669125e-16
rhumerus -26.514938449977873 -16.711370408500734 -77.08844878494475
rradius 34.17747145096099
rwrist 1.9333931028534497
rhand -18.108107198436198 20.82559906462156
rfingers nan
rthumb 8.662585026573407 -7.752291539286922
104
root 1.2423582143307286 17.938203465955286 49.286588690789316 -3.250241704101864 0.5679045588453406 -5.467534719033191
lfemur -17.542305586190487 -2.4477191137455927 -17.105465513181585
ltibia 35.05207974499489
lfoot -10.563757462767146 2.5627183405160334
ltoes -9.485456374689004
rfemur -2.1733343251435375 2.8929480894711492 29.09639843275206
rtibia 40.75786827131263
rfoot -0.6916564841804442 -11.030366364104886
rtoes 7.9121034141869995
lowerback 8.876467281580926 0.5266867119086777 4.6004156220373424
upperback -0.12623883377048384 1.75540644331074 1.4856836123025103
thorax -5.048528544139105 0.8376565623981169 -1.3733225248445748
lowerneck -16.038670272320996 -3.388781116537604 -1.5843497540415972
upperneck 21.505241611350364 -4.547090461013716 0.7400881121221273
head 9.535249881305532 -2.1615762379311145 -0.18187813514688672
lclavicle 4.202458449007914e-16 -8.088863762575747e-16
lhumerus -32.104091820074785 3.924459072687288 80.75120452537757
lradius 24.554556807249156
lwrist 8.803227196433255
lhand -28.553368951031594 19.399989373544408
lfingers nan
lthumb -1.9320823081250749 49.44310678032528
rclavicle 4.3410121039484744e-16 -7.962916099000235e-16
rhumerus -26.551120758995175 -16.29202001957885 -77.34141754148882
rradius 34.211845646786344
rwrist 2.013016334763609
rhand -18.08528122922061 20.854100818429828
rfingers nan
rthumb 8.663440177554714 -7.789303983203519
105
root 1.2500602320375755 17.94450641343677 50.067623952720474 -3.212646986716728 0.8888144209559008 -4.119398983812432
lfemur -16.343870120302658 -2.998777290498593 -18.907098810401763
ltibia 33.08240295618887
lfoot -11.180085477577858 1.534575964824338
ltoes -9.42189190832349
rfemur -2.885649828932836 2.3545514484585057 27.572463625836303
rtibia 44.27544056589435
rfoot -0.47295275999935527 -11.369959744291759
rtoes 8.920255457046963
lowerback 8.977971644394856 0.43910346725776395 3.639733229934416
upperback -0.09750794911288344 1.426450122933618 1.2704540687373167
thorax -5.013100042495091 0.6948438065582278 -1.1017156063774363
lowerneck -16.076788624555732 -3.3844068458065157 -1.5924567817335427
upperneck 21.413101712999747 -4.548410016360863 0.923641974052867
head 9.515625202219928 -2.153815928253199 -0.0996146194142357
lclavicle 4.197807895086426e-16 -8.087744603855943e-16
lhumerus -31.63300661735357 3.4754972433585927 80.70531736723967
lradius 24.814291647269098
lwrist 8.62739873377378
lhand -28.482981194844314 19.448324947958724
lfingers nan
lthumb -1.8949896428396407 49.42463003839883
rclavicle 4.3375675878000606e-16 -7.961994620582234e-16
rhumerus -26.661431911328574 -15.96620411143639 -77.64835735400452
rradius 34.172932487808666
rwrist 2.049529114268239
rhand -18.095193739870233 20.8120930967159
rfingers nan
rthumb 8.669804901097 -7.796523007716505
